<?xml version="1.0" encoding="UTF-8"?>
<svg id="_圖層_1" data-name="圖層_1" xmlns="http://www.w3.org/2000/svg" version="1.1" viewBox="0 0 128 128">
  <!-- Generator: Adobe Illustrator 30.6.0, SVG Export Plug-In . SVG Version: 2.1.4 Build 109)  -->
  <defs>
    <style>
      .st0 {
        fill: #4b5e71;
      }
    </style>
  </defs>
  <path class="st0" d="M94.5,36.2l-27.8-25.8c-1.5-1.4-3.9-1.4-5.4,0l-27.8,25.8-24.2,22.5c-2.3,2.2-.6,5.8,2.7,5.8h6.2c2.1,0,3.8,1.5,3.8,3.4v47.2c0,1.9,1.7,3.4,3.8,3.4h20.7c2.1,0,3.8-1.5,3.8-3.4v-14.7c0-6.9,6.2-12.5,13.8-12.5h0c7.6,0,13.8,5.6,13.8,12.5v14.7c0,1.9,1.7,3.4,3.8,3.4h20.7c2.1,0,3.8-1.5,3.8-3.4v-47.2c0-1.9,1.7-3.4,3.8-3.4h6.2c3.3,0,5-3.7,2.7-5.8l-24.2-22.5Z"/>
  <path class="st0" d="M31.8,16h-4.2c-2.1,0-3.9,1.6-3.9,3.5v25.8l11.9-11.2v-14.6c0-2-1.7-3.5-3.9-3.5Z"/>
</svg>