<?xml version="1.0" encoding="UTF-8"?>
<svg id="_圖層_1" data-name="圖層_1" xmlns="http://www.w3.org/2000/svg" version="1.1" viewBox="0 0 128 128">
  <!-- Generator: Adobe Illustrator 30.6.0, SVG Export Plug-In . SVG Version: 2.1.4 Build 109)  -->
  <defs>
    <style>
      .st0 {
        fill: #4b5e71;
      }
    </style>
  </defs>
  <path class="st0" d="M60.9,40.6c1.4,10.2,2.3,11,12.5,11.7-10.2,1.4-11,2.3-11.7,12.5-1.4-10.2-2.3-11-12.5-11.7,10.2-1.4,11-2.3,11.7-12.5Z"/>
  <g>
    <path class="st0" d="M105.5,17.6c-2,0-3.7,1.7-3.7,3.7v69.7c0,2,1.7,3.7,3.7,3.7s3.7-1.7,3.7-3.7V21.4c0-2-1.7-3.7-3.7-3.7Z"/>
    <path class="st0" d="M102.9,102.8H34.3c-2.1,0-3.9-1.7-3.9-3.9s1.7-3.9,3.9-3.9h57.2c1.6,0,3-1.3,3-3V16.5c0-1.6-1.3-3-3-3H30.7c-6.6,0-11.9,5.3-11.9,11.9v77.1c0,6.6,5.3,11.9,11.9,11.9h72.3c3.2,0,5.8-2.6,5.8-5.8s-2.6-5.8-5.8-5.8ZM42,30.8c0-2,1.6-3.7,3.7-3.7h29.7c2,0,3.7,1.6,3.7,3.7v44c0,2-1.6,3.7-3.7,3.7h-29.7c-2,0-3.7-1.6-3.7-3.7V30.8Z"/>
  </g>
</svg>