<?xml version="1.0" encoding="UTF-8"?>
<svg id="_圖層_1" data-name="圖層_1" xmlns="http://www.w3.org/2000/svg" version="1.1" viewBox="0 0 128 128">
  <!-- Generator: Adobe Illustrator 30.6.0, SVG Export Plug-In . SVG Version: 2.1.4 Build 109)  -->
  <defs>
    <style>
      .st0 {
        stroke-width: 2.3px;
      }

      .st0, .st1 {
        fill: #4b5e71;
      }

      .st0, .st1, .st2 {
        stroke: #fff;
        stroke-miterlimit: 10;
      }

      .st3, .st2 {
        fill: #fff;
      }
    </style>
  </defs>
  <rect class="st0" x="75.1" y="8.7" width="40.5" height="57" rx="3.8" ry="3.8" transform="translate(8.7 -17.3) rotate(10.8)"/>
  <path class="st3" d="M97.4,24.6c-.6,10.8.1,11.9,10.6,14.6-10.8-.6-11.9.1-14.6,10.6.6-10.8-.1-11.9-10.6-14.6,10.8.6,11.9-.1,14.6-10.6Z"/>
  <g>
    <path class="st1" d="M110.1,47.2h-31.2l-7.5-14.9c-1.1-2.2-3.3-3.5-5.7-3.5H17.9c-4.8,0-8.6,3.9-8.6,8.6v73.8c0,4.8,3.9,8.6,8.6,8.6h39.4s0,0,0,0h54.5c3.8,0,7-3.1,7-7v-57c0-4.8-3.9-8.6-8.6-8.6Z"/>
    <path class="st2" d="M22.5,41.5c1,0,1.7-.8,1.7-1.7s-.8-1.7-1.7-1.7h-2.3c-1,0-1.7.8-1.7,1.7s.8,1.7,1.7,1.7h2.3Z"/>
    <path class="st2" d="M29.4,41.5h2.3c1,0,1.7-.8,1.7-1.7s-.8-1.7-1.7-1.7h-2.3c-1,0-1.7.8-1.7,1.7s.8,1.7,1.7,1.7Z"/>
    <path class="st2" d="M38.6,41.5h2.3c1,0,1.7-.8,1.7-1.7s-.8-1.7-1.7-1.7h-2.3c-1,0-1.7.8-1.7,1.7s.8,1.7,1.7,1.7Z"/>
  </g>
  <path class="st3" d="M65.8,32.2c1.1,0,2.1.6,2.6,1.6l6.7,13.4h-16.9l-2.9-5.8h6.4c1,0,1.7-.8,1.7-1.7s-.8-1.7-1.7-1.7h-8.2l-2.9-5.7s0,0,0,0h15.1Z"/>
</svg>