<?xml version="1.0" encoding="UTF-8"?>
<svg id="_圖層_1" data-name="圖層_1" xmlns="http://www.w3.org/2000/svg" version="1.1" viewBox="0 0 128 128">
  <!-- Generator: Adobe Illustrator 30.6.0, SVG Export Plug-In . SVG Version: 2.1.4 Build 109)  -->
  <defs>
    <style>
      .st0 {
        fill: #4b5e71;
      }

      .st1 {
        fill: #fff;
      }
    </style>
  </defs>
  <g>
    <path class="st0" d="M64,102.9h0c12.5,0,24.3-4.9,33.2-13.8,8.9-8.9,13.8-20.6,13.8-33.2,0-25.9-21.1-46.9-46.9-46.9-12.5,0-24.3,4.9-33.2,13.8-8.9,8.9-13.8,20.7-13.8,33.2,0,25.9,21.1,46.9,46.9,46.9Z"/>
    <path class="st0" d="M94.6,118.1c-.2-.5-5-9.4-16.9-13.3-1-.3-2.2-.3-3.1,0,0,0-9.9,1.4-20.5,0-.8-.3-2.1-.3-3.1,0-.4.1-11.8,3.8-17.5,13.3-.3.5-.2.9.2,1.3.4.3,1.2.5,2,.5h56.6c1.8,0,2.8-.8,2.3-1.7Z"/>
  </g>
  <path class="st1" d="M94.7,26.4c-10.3,8.1-10.6,9.6-4.7,21.3-8.1-10.3-9.6-10.6-21.3-4.7,10.3-8.1,10.6-9.6,4.7-21.3,8.1,10.3,9.6,10.6,21.3,4.7Z"/>
  <path class="st1" d="M101.3,59.8c-5.2,4.1-5.4,4.9-2.4,10.8-4.1-5.2-4.9-5.4-10.8-2.4,5.2-4.1,5.4-4.9,2.4-10.8,4.1,5.2,4.9,5.4,10.8,2.4Z"/>
</svg>