<?xml version="1.0" encoding="UTF-8"?>
<svg id="_圖層_1" data-name="圖層_1" xmlns="http://www.w3.org/2000/svg" version="1.1" viewBox="0 0 128 128">
  <!-- Generator: Adobe Illustrator 30.6.0, SVG Export Plug-In . SVG Version: 2.1.4 Build 109)  -->
  <defs>
    <style>
      .st0 {
        stroke: #fff;
        stroke-width: 1.2px;
      }

      .st0, .st1 {
        fill: #4b5e71;
      }

      .st0, .st2 {
        stroke-miterlimit: 10;
      }

      .st2 {
        fill: none;
        stroke: #4b5e71;
        stroke-linecap: round;
        stroke-width: 2px;
      }

      .st3 {
        fill: #fff;
      }
    </style>
  </defs>
  <rect class="st0" x="62.9" y="14.6" width="54" height="76" rx="5" ry="5" transform="translate(11.5 -16) rotate(10.8)"/>
  <path class="st3" d="M92.5,35.7c-.8,14.4.2,15.8,14.2,19.5-14.4-.8-15.8.2-19.5,14.2.8-14.4-.2-15.8-14.2-19.5,14.4.8,15.8-.2,19.5-14.2Z"/>
  <path class="st1" d="M6.2,114.7c-1.2,1.5-.1,3.6,1.8,3.6h53l-.9,1.5h10.2l-.8-1.5h52.2c1.9,0,3-2.3,1.7-3.7-4.6-5.1-14.8-9.4-31.6-9.4s-21.4,5.2-24.4,7.8-3.5,1.3-5,.2c-3.8-2.6-11.9-8.2-26.8-8-16.2.2-25.3,4.5-29.3,9.5Z"/>
  <rect class="st0" x="12.3" y="9.2" width="57.8" height="81.4" rx="5.4" ry="5.4" transform="translate(-4.1 3.6) rotate(-4.8)"/>
  <path class="st3" d="M39.1,31.8c3.4,15.1,4.8,16.2,20.3,16-15.1,3.4-16.2,4.8-16,20.3-3.4-15.1-4.8-16.2-20.3-16,15.1-3.4,16.2-4.8,16-20.3Z"/>
  <line class="st2" x1="42.5" y1="93.5" x2="44.8" y2="100.2"/>
  <line class="st2" x1="25.5" y1="94.7" x2="29.7" y2="100.5"/>
  <line class="st2" x1="104.2" y1="94.7" x2="100" y2="100.5"/>
  <line class="st2" x1="85.7" y1="93.5" x2="83.4" y2="100.2"/>
  <line class="st2" x1="64.9" y1="105.6" x2="64.9" y2="92.4"/>
</svg>